# xmcd
#
# Track frame offsets:
#	150
#	16719
#	32337
#	51398
#	70765
#	91182
#	105373
#	121573
#	137856
#	153443
#	177801
#	205337
#	220123
#	231342
#	257794
#
# Disc length: 3658 seconds
#
# Revision: 0
# Processed by: cddbd v1.5.2PL0 Copyright (c) Steve Scherf et al.
# Submitted via: audiograbber 1.83.01
#
DISCID=be0e480f
DTITLE=diverse - Younger Than That Now
DYEAR=2011
DGENRE=Cover-Rock
TTITLE0=Christine Collister - Forever Young
TTITLE1=Dave Burland - Girl From The North Country
TTITLE2=Julie Matthews - To Make You Feel My Love
TTITLE3=Martin Simpson - Mr. Tambourine Man
TTITLE4=Gary Hall - I Shall Be Released
TTITLE5=Ian Balley - Oh Sister
TTITLE6=Craig and Willoughby - I'll Be Your Baby Tonight
TTITLE7=Blonde on Bob - When I Paint My Masterpiece
TTITLE8=The Shuffle Monsters - Corrina Corrina
TTITLE9=Jez Lowe - Changing of the Guards
TTITLE10=Steve Phillips and the Rough Diamonds - Not Dark Yet
TTITLE11=Edwina Hayes - It Ain't Me Babe
TTITLE12=Costanza - The Man In Me
TTITLE13=Sarah Dean - Man In The Long Black Coat
TTITLE14=Phil Cerny - The Times They Are A-Changin'
EXTD=
EXTT0=
EXTT1=
EXTT2=
EXTT3=
EXTT4=
EXTT5=
EXTT6=
EXTT7=
EXTT8=
EXTT9=
EXTT10=
EXTT11=
EXTT12=
EXTT13=
EXTT14=
PLAYORDER=
